<?xml version="1.0" encoding="UTF-8"?>
<svg id="Layer_1" data-name="Layer 1" xmlns="http://www.w3.org/2000/svg" viewBox="0 0 1839.26 1062">
  <path d="m200.69,143.81c158.69,24.91,251.79,54.56,308.73,78.27,23.34,9.72,55.85,24.78,92.87,18.93,47.15-7.45,55.69-41.56,124.51-59.7,18.09-4.77,37-9.75,61.24-8.01,68.48,4.93,88.2,57.07,123.49,53.15,46.16-5.13,41.15-97.55,90.83-104.84,41.1-6.03,71.7,53.21,119.41,47.33,42.98-5.3,44.62-56.63,89.3-61.52,39.73-4.35,56.49,34.27,99.51,31.67,48.35-2.92,53.35-53.26,106.03-60.79,49.58-7.08,69.7,34,120.54,32.39C1619.3,108.08,1641.28-1.49,1700.46.02c69.57,1.77,126.14,155.4,138.8,176.92h0s-30.63-25.91-45.93-29.12c-60.12-12.64-193.49,260-267.4,250.46-51.33-6.63-51.23-146.4-87.77-147.07-32.49-.6-30.78,109.98-127.57,144.16-44.39,15.68-107.64,14.63-125.53-5.1-30.67-33.81,89.75-102.77,53.07-157.26-8.36-12.42-25.93-25.64-40.82-24.03-37.12,4.03-37.46,98.11-62.26,99.02-20.51.75-27.83-63.38-58.5-65.9-41.51-3.41-74.82,110.23-131.33,108.85-26.23-.64-30.53-25.4-71.95-36.04-35.16-9.03-72.25-1.52-113.32,12.05-148.82,49.15-207.62,130.74-243.38,120.1-42.1-12.52,7.61-135.04-34.7-147.07-39.9-11.35-112.33,89.63-171.46,77.18-41.62-8.77-32.59-64.44-70.42-72.81-67.19-14.87-159.67,146.53-206.16,136.15-53.28-11.9-56.34-251.74,89.81-292.69,26.41-7.4,53.4-7.1,77.06-4Z" style="fill: #ff0;"/>
  <path d="m1605.5,877.39c-155.49-31.98-246.7-70.04-302.5-100.48-22.87-12.48-54.72-31.82-91-24.3-46.2,9.57-54.57,53.35-122,76.64-17.72,6.12-36.26,12.52-60,10.28-67.1-6.33-86.42-73.26-121-68.23-45.23,6.59-40.32,125.23-89,134.59-40.27,7.75-70.26-68.3-117-60.75-42.11,6.8-43.72,72.7-87.5,78.98-38.93,5.58-55.35-43.99-97.5-40.66-47.37,3.74-52.27,68.38-103.89,78.03-48.58,9.09-68.29-43.65-118.11-41.58-80.48,3.34-102.01,144-160,142.07-68.17-2.27-123.6-199.49-136-227.12h0s30.01,33.26,45,37.39c58.9,16.22,189.58-333.77,262-321.52,50.29,8.51,50.2,187.93,86,188.8,31.84.77,30.16-141.18,125-185.06,43.49-20.12,105.47-18.78,123,6.54,30.05,43.4-87.94,131.93-52,201.89,8.19,15.95,25.41,32.92,40,30.84,36.37-5.18,36.71-125.95,61-127.11,20.1-.96,27.27,81.36,57.32,84.59,40.67,4.37,73.31-141.51,128.68-139.74,25.7.82,29.91,32.61,70.5,46.27,34.45,11.59,70.79,1.95,111.03-15.46,145.82-63.09,203.43-167.83,238.47-154.18,41.25,16.07-7.45,173.36,34,188.8,39.1,14.57,110.06-115.07,168-99.07,40.78,11.26,31.93,82.72,69,93.47,65.83,19.09,156.45-188.1,202-174.78,52.21,15.27,55.21,323.16-88,375.73-25.88,9.5-52.32,9.11-75.5,5.14Z" style="fill: #ff0;"/>
</svg>