<?xml version="1.0" encoding="UTF-8"?>
<svg id="Layer_1" data-name="Layer 1" xmlns="http://www.w3.org/2000/svg" viewBox="0 0 1036.18 795.88">
  <defs>
    <style>
      .cls-1 {
        fill: #ff1d25;
      }
    </style>
  </defs>
  <path class="cls-1" d="m291.73,377.2c-.16-.12-.36-.25-.36-.25,0,0,.18.15.36.25.44.25.89.24.97.24,23.67.48,47.17,6.15,70.82,5.29,0,0,26.59-.97,66.22,7.23,44.46,9.2,84.49,39.61,106.27,69.78,58.16,80.56,19.44,205.54-40.82,271.18-11.88,12.95-39.68,42.49-86.31,56.81-49.61,15.24-93.71,5.04-106.95,1.46-3.08-.83-5.54-1.57-7.29-2.11-83.22-25.58-148.28-136.94-148.28-136.94-63.22-107.64-54.9-180.02-116.06-204.14-12.24-4.83-23.25-6.14-30.32-6.53,20.16-1.75,62.22-2.26,90.97,23.71,14.54,13.14,28.71,35.79,34.23,44.6,8.55,13.66,13.77,24.43,17,31.03,0,0,13.9,28.43,42.98,83.89,17.45,33.28,88.36,115.84,173.97,108.3,40.97-3.6,70.54-26.6,79.53-33.76,34.3-27.36,47.13-60.9,53.55-78.37,6.73-18.31,18.4-49.93,9.89-89.26-1.46-6.72-7.27-31.1-26.23-56.01-7.62-10.01-23.74-27.98-79.83-55.98-24.71-12.33-59.82-27.71-104.32-40.44Z"/>
  <path class="cls-1" d="m219.72,320.45c-.16-.03-.35-.06-.35-.06,0,0,.19.02.35.06.4.11.66.37.71.41,14.47,13.02,31.67,23.11,45.4,36.85,0,0,15.43,15.44,43.7,33.21,31.71,19.93,72.32,25.81,101.85,21.58,78.84-11.29,123.73-101.15,123.34-170.74-.08-13.73-.66-45.43-20.84-79.39-21.47-36.14-53.51-55.32-63.41-60.79-2.3-1.27-4.18-2.25-5.53-2.94-63.91-32.75-163.68-8.53-163.68-8.53-96.64,23.21-131.11,67.34-180.98,46.18-9.98-4.24-17.31-9.7-21.76-13.45,11.15,12.27,36.12,36.14,67.54,38.11,15.89,1,36.75-3.4,44.87-5.12,12.58-2.65,21.58-5.59,27.12-7.38,0,0,23.84-7.7,71.54-21.62,28.62-8.35,116.2-13.58,163.49,38.56,22.63,24.95,27.85,54.08,29.34,63.02,5.68,34.16-4.91,59.64-10.58,72.77-5.94,13.76-16.17,37.55-42.73,54.21-4.54,2.85-21.32,12.88-46.28,15.82-10.03,1.18-29.51,1.93-78.44-14.27-21.56-7.14-51.02-18.46-84.67-36.48Z"/>
  <path class="cls-1" d="m471.18,404.11c5.51-4.66,10.74-9.12,13-11,9.76-8.12,18.61-13.5,26-18,3.19-1.94,36.11-21.83,60-29,42.92-12.88,89.83,5.33,108,16,93.75,55.07,114.56,314.69-18,403-69.91,46.58-182.34,29.83-185,17h0c.05,0,29.62,3.9,48,4,47.16.27,83.8-24.05,94-31,15.53-10.58,26.31-21.67,32-28,2.52-2.81,13.17-14.83,24-34,13.72-24.27,19.31-45.06,24-63,1.73-6.62,7.56-29.74,10-61,.62-7.97,1.6-20.96,1-38-1.58-44.84-12.6-75.73-17-87-6.02-15.43-11.98-25.7-20-35-.58-.67-7.24-8.32-16-15-29.16-22.22-68.82-23.93-71-24-55.31-1.77-107.02,32.01-107,32,0,0-5.99,2-6,2Z"/>
  <path class="cls-1" d="m451.18.11c-6.47,4.94,73.53,173.17,217,229,58.4,22.73,117,17,117,17,44.03-3.26,77.08-16.64,93-24,47.77-22.09,76.28-52.45,84-61,53.38-59.14,73.99-140.98,74-141h0c-69.13,80.24-91,97-91,97-6.75,5.17-40.01,30.15-90,46-21.94,6.96-93.03,26.72-177,3-60.82-17.18-99.62-49-147-88C473.35,30.51,454.11-2.13,451.18.11Z"/>
  <circle class="cls-1" cx="758.18" cy="78.11" r="46"/>
</svg>