<?xml version="1.0" encoding="UTF-8"?>
<svg id="Layer_1" data-name="Layer 1" xmlns="http://www.w3.org/2000/svg" viewBox="0 0 518.77 67.86">
  <g style="isolation: isolate;">
    <text transform="translate(78.29 32.32) scale(1.18 1)" style="fill: #be1e2d; font-family: ArialUnicodeMS, &apos;Arial Unicode MS&apos;; font-size: 34.42px; isolation: isolate;"><tspan x="0" y="0">कैलाश</tspan></text>
    <text transform="translate(173.88 31.35) scale(1.18 1)" style="fill: #be1e2d; font-family: ArialMT, Arial; font-size: 34.42px; isolation: isolate;"><tspan x="0" y="0"> </tspan></text>
    <text transform="translate(182.49 32.32) scale(1.18 1)" style="fill: #be1e2d; font-family: ArialUnicodeMS, &apos;Arial Unicode MS&apos;; font-size: 34.42px; isolation: isolate;"><tspan x="0" y="0">मठ</tspan></text>
    <text transform="translate(229.89 31.35) scale(1.18 1)" style="fill: #be1e2d; font-family: ArialMT, Arial; font-size: 34.42px; isolation: isolate;"><tspan x="0" y="0">, </tspan></text>
    <text transform="translate(246.94 32.32) scale(1.18 1)" style="fill: #be1e2d; font-family: ArialUnicodeMS, &apos;Arial Unicode MS&apos;; font-size: 34.42px; isolation: isolate;"><tspan x="0" y="0">काशी</tspan></text>
    <text transform="translate(327.87 31.35) scale(1.18 1)" style="fill: #be1e2d; font-family: ArialMT, Arial; font-size: 34.42px; isolation: isolate;"><tspan x="0" y="0" xml:space="preserve"> ( </tspan></text>
    <text transform="translate(356.66 32.32) scale(1.18 1)" style="fill: #be1e2d; font-family: ArialUnicodeMS, &apos;Arial Unicode MS&apos;; font-size: 34.42px; isolation: isolate;"><tspan x="0" y="0">वाराणसी </tspan></text>
    <text transform="translate(505.23 31.35) scale(1.18 1)" style="fill: #be1e2d; font-family: ArialMT, Arial; font-size: 34.42px; isolation: isolate;"><tspan x="0" y="0">)</tspan></text>
  </g>
  <g style="isolation: isolate;">
    <text transform="translate(78.23 59.8) scale(1.41 1)" style="fill: #be1e2d; font-family: ArialMT, Arial; font-size: 24.82px; isolation: isolate; letter-spacing: .02em;"><tspan x="0" y="0">K</tspan></text>
    <text transform="translate(97.78 59.8) scale(1.41 1)" style="fill: #be1e2d; font-family: ArialMT, Arial; font-size: 24.82px; isolation: isolate;"><tspan x="0" y="0">ailash </tspan></text>
    <text transform="translate(188.8 59.8) scale(1.41 1)" style="fill: #be1e2d; font-family: ArialMT, Arial; font-size: 24.82px; isolation: isolate;"><tspan x="0" y="0">M</tspan></text>
    <text transform="translate(217.18 59.8) scale(1.41 1)" style="fill: #be1e2d; font-family: ArialMT, Arial; font-size: 24.82px; isolation: isolate;"><tspan x="0" y="0">a</tspan></text>
    <text transform="translate(233.93 59.8) scale(1.41 1)" style="fill: #be1e2d; font-family: ArialMT, Arial; font-size: 24.82px; isolation: isolate;"><tspan x="0" y="0">th, </tspan></text>
    <text transform="translate(279.67 59.8) scale(1.41 1)" style="fill: #be1e2d; font-family: ArialMT, Arial; font-size: 24.82px; isolation: isolate; letter-spacing: .02em;"><tspan x="0" y="0">K</tspan></text>
    <text transform="translate(299.22 59.8) scale(1.41 1)" style="fill: #be1e2d; font-family: ArialMT, Arial; font-size: 24.82px; isolation: isolate;"><tspan x="0" y="0">ashi </tspan></text>
    <text transform="translate(365.06 59.8) scale(1.41 1)" style="fill: #be1e2d; font-family: ArialMT, Arial; font-size: 24.82px; isolation: isolate; letter-spacing: .05em;"><tspan x="0" y="0">(</tspan></text>
    <text transform="translate(376.76 59.8) scale(1.41 1)" style="fill: #be1e2d; font-family: ArialMT, Arial; font-size: 24.82px; isolation: isolate; letter-spacing: -.03em;"><tspan x="0" y="0">V</tspan></text>
    <text transform="translate(395.16 59.8) scale(1.41 1)" style="fill: #be1e2d; font-family: ArialMT, Arial; font-size: 24.82px; isolation: isolate;"><tspan x="0" y="0">a</tspan></text>
    <text transform="translate(412.06 59.8) scale(1.41 1)" style="fill: #be1e2d; font-family: ArialMT, Arial; font-size: 24.82px; isolation: isolate;"><tspan x="0" y="0">r</tspan></text>
    <text transform="translate(423.34 59.8) scale(1.41 1)" style="fill: #be1e2d; font-family: ArialMT, Arial; font-size: 24.82px; isolation: isolate;"><tspan x="0" y="0">anasi)</tspan></text>
  </g>
  <g>
    <path d="m47.43,2.46l-13.28-1.56v9.38l13.28-1.56-5.31-3.13s5.31-3.13,5.31-3.13Z" style="fill: #f58049;"/>
    <path d="m0,61.66h68.29l-3.79-3.57H3.79l-3.79,3.57Z" style="fill: #c75427;"/>
    <path d="m33.2,2.68c0-3.57,1.9-3.57,1.9,0,0,8.94,1.9,16.09,1.9,16.09h-5.69s1.9-7.15,1.9-16.09h-.01Z" style="fill: #662314;"/>
    <path d="m53.12,49.15v-3.57l-7.59-3.46v-7.26l-3.79-3.57h-.23s1.39-7.09-2.61-9.74v-2.77l-1.9-1.79h-5.69l-1.9,1.79v2.77c-4,2.65-2.61,9.74-2.61,9.74h-.23l-3.79,3.57v7.26l-7.59,3.46v3.57l-7.59,3.57v7.15l53.12.07v-7.22l-7.59-3.57h0Z" style="fill: #c75427;"/>
    <path d="m37.65,31.28h-7s-1.17-8.94,1.17-8.94h4.67c2.34,0,1.17,8.94,1.17,8.94h0Z" style="fill: #662314;"/>
    <path d="m22.35,39.28v-.93l-.55-.52h-.12c-.16-.78-.43-2.35-.43-4.18,0-1.04-.55-1.04-.55,0,0,1.83-.27,3.4-.43,4.18h-.12l-.55.52v.93c-.88.85-.56,2.72-.56,2.72h3.88s.33-1.87-.55-2.72h-.02Zm26.38,0v-.93l-.55-.52h-.12c-.16-.78-.43-2.35-.43-4.18,0-1.04-.55-1.04-.55,0,0,1.83-.27,3.4-.43,4.18h-.12l-.55.52v.93c-.88.85-.55,2.72-.55,2.72h3.88s.32-1.87-.56-2.72h-.02Zm7.59,7.15v-.93l-.55-.52h-.12c-.16-.78-.43-2.35-.43-4.18,0-1.04-.55-1.04-.55,0,0,1.83-.27,3.4-.43,4.18h-.12l-.55.52v.93c-.88.85-.55,2.72-.55,2.72h3.88s.32-1.87-.56-2.72h-.02Zm7.59,8.94v-.93l-.55-.52h-.12c-.16-.78-.43-2.35-.43-4.18,0-1.04-.55-1.04-.55,0,0,1.83-.27,3.4-.43,4.18h-.12l-.55.52v.93c-.88.85-.55,2.72-.55,2.72h3.88s.32-1.87-.56-2.72h-.02Zm-49.15-8.94v-.93l-.55-.52h-.12c-.16-.78-.43-2.35-.43-4.18,0-1.04-.55-1.04-.55,0,0,1.83-.27,3.4-.43,4.18h-.12l-.55.52v.93c-.88.85-.55,2.72-.55,2.72h3.88s.33-1.87-.55-2.72h-.03Zm-7.59,8.94v-.93l-.55-.52h-.12c-.16-.78-.43-2.35-.43-4.18,0-1.04-.55-1.04-.55,0,0,1.83-.27,3.4-.43,4.18h-.12l-.55.52v.93c-.88.85-.55,2.72-.55,2.72h3.88s.33-1.87-.55-2.72h-.03Z" style="fill: #c75427;"/>
    <path d="m29.4,18.77l1.9-1.79h5.69l1.9,1.79h-9.49Zm-6.64,16.09l3.79-3.57h15.18l3.79,3.57h-22.76Zm-7.59,10.72l3.79-3.57h30.35l3.79,3.57H15.17Zm-7.59,7.15l3.79-3.57h45.53l3.79,3.57H7.58ZM0,61.66l3.79-3.57h60.71l3.79,3.57H0Z" style="fill: #f58049;"/>
    <path d="m39.84,42h-11.38s0-7.15,2.85-7.15h5.69c2.85,0,2.85,7.15,2.85,7.15h0Zm1.9,7.15h-15.18s0-3.57,3.79-3.57h7.59c3.79,0,3.79,3.57,3.79,3.57h0Z" style="fill: #662314;"/>
    <path d="m45.53,58.08h-22.76s0-5.36,5.69-5.36h11.38c5.69,0,5.69,5.36,5.69,5.36Z" style="fill: #2a2f33;"/>
    <path d="m39.84,45.57h-11.38c-1.05,0-1.9-.8-1.9-1.79s.85-1.79,1.9-1.79h11.38c1.05,0,1.9.8,1.9,1.79s-.85,1.79-1.9,1.79Zm1.9,7.15h-15.18c-1.05,0-1.9-.8-1.9-1.79s.85-1.79,1.9-1.79h15.18c1.05,0,1.9.8,1.9,1.79s-.85,1.79-1.9,1.79Zm3.79,8.94h-22.76c-1.05,0-1.9-.8-1.9-1.79s.85-1.79,1.9-1.79h22.76c1.05,0,1.9.8,1.9,1.79s-.85,1.79-1.9,1.79Z" style="fill: #f89f6e;"/>
    <path d="m39.84,52.72h1.9v5.36h-1.9v-5.36Zm-13.28,0h1.9v5.36h-1.9v-5.36Z" style="fill: #f58049;"/>
  </g>
</svg>