<?xml version="1.0" encoding="UTF-8"?>
<svg id="Layer_1" data-name="Layer 1" xmlns="http://www.w3.org/2000/svg" viewBox="0 0 559.25 121.13">
  <g>
    <path d="m87.83,4.77l-24.35-3.04v18.26l24.35-3.04-9.74-6.09,9.74-6.09Z" style="fill: #ff8044;"/>
    <path d="m0,120h125.22l-6.96-6.96H6.96l-6.96,6.96Z" style="fill: #c7521e;"/>
    <path d="m60.87,5.22c0-6.96,3.48-6.96,3.48,0,0,17.39,3.48,31.3,3.48,31.3h-10.43s3.48-13.91,3.48-31.3Z" style="fill: #662113;"/>
    <path d="m98.27,95.65v-6.96l-13.91-6.74v-14.13l-6.96-6.96h-2.17s2.55-13.8-4.79-18.95v-5.39l-3.48-3.48h-10.43l-3.48,3.48v5.39c-7.34,5.15-4.79,18.95-4.79,18.95h1.31l-6.96,6.96v14.13l-13.91,6.74v6.96l-13.91,6.96v13.91l97.39.13v-14.04l-13.91-6.96Z" style="fill: #c7521e;"/>
    <path d="m69.03,60.87h-12.84s-2.14-17.39,2.14-17.39h8.56c4.28,0,2.14,17.39,2.14,17.39Z" style="fill: #662113;"/>
    <path d="m39.13,76.43v-1.81l.84.16h-.22c-.3-2.69-.8-5.74-.8-9.31,0-2.03-1.02-2.03-1.02,0,0,3.56-.5,6.62-.8,9.31h-.22l-1.27-.16v1.81c-1.36,1.65-.77,5.3-.77,5.31h7.11s.6-3.66-2.87-5.31Zm48.7,0v-1.81l.51.16h-.22c-.3-2.69-.8-5.74-.8-9.31,0-2.03-1.02-2.03-1.02,0,0,3.56-.5,6.62-.8,9.31h-.22l-.94-.16v1.81c-1.69,1.65-1.09,5.3-1.09,5.31h7.11s.59-3.66-2.55-5.31Zm13.91,13.91v-1.81l.51.16h-.22c-.3-2.69-.8-5.74-.8-9.31,0-2.03-1.02-2.03-1.02,0,0,3.56-.5,6.62-.8,9.31h-.22l-.94-.16v1.81c-1.69,1.65-1.09,5.3-1.09,5.31h7.11s.59-3.66-2.55-5.31Zm13.91,17.39v-1.81l.51.16h-.22c-.3-2.69-.8-5.74-.8-9.31,0-2.03-1.02-2.03-1.02,0,0,3.56-.5,6.62-.8,9.31h-.22l-.94-.16v1.81c-1.69,1.65-1.09,5.3-1.09,5.31h7.11s.59-3.66-2.55-5.31Zm-90.43-17.39v-1.81l.84.16h-.22c-.3-2.69-.8-5.75-.8-9.31,0-2.03-1.02-2.03-1.02,0,0,3.56-.5,6.62-.8,9.31h-.22l-1.27-.16v1.81c-1.36,1.65-.77,5.3-.77,5.31h7.11s.6-3.66-2.87-5.31Zm-13.91,17.39v-1.81l.84.16h-.22c-.3-2.69-.8-5.75-.8-9.31,0-2.03-1.02-2.03-1.02,0,0,3.56-.5,6.62-.8,9.31h-.22l-1.27-.16v1.81c-1.36,1.65-.77,5.3-.77,5.31h7.11s.6-3.66-2.87-5.31Z" style="fill: #c7521e;"/>
    <path d="m53.91,36.52l3.48-3.48h10.43l3.48,3.48h-17.39Zm-12.17,31.3l6.96-6.96h27.83l6.96,6.96h-41.74Zm-13.91,20.87l6.96-6.96h55.65l6.96,6.96H27.83Zm-13.91,13.91l6.96-6.96h83.48l6.96,6.96H13.91ZM0,120l6.96-6.96h111.3l6.96,6.96H0Z" style="fill: #ff8044;"/>
    <path d="m73.04,81.74h-20.87s0-13.91,5.22-13.91h10.43c5.22,0,5.22,13.91,5.22,13.91Zm3.48,13.91h-27.83s0-6.96,6.96-6.96h13.91c6.96,0,6.96,6.96,6.96,6.96Z" style="fill: #662113;"/>
    <path d="m83.48,113.04h-41.74s0-10.43,10.43-10.43h20.87c10.43,0,10.43,10.43,10.43,10.43Z" style="fill: #292f33;"/>
    <path d="m73.04,88.7h-20.87c-1.92,0-3.48-1.56-3.48-3.48s1.56-3.48,3.48-3.48h20.87c1.92,0,3.48,1.56,3.48,3.48s-1.56,3.48-3.48,3.48Zm3.48,13.91h-27.83c-1.92,0-3.48-1.56-3.48-3.48s1.56-3.48,3.48-3.48h27.83c1.92,0,3.48,1.56,3.48,3.48s-1.56,3.48-3.48,3.48Zm6.96,17.39h-41.74c-1.92,0-3.48-1.56-3.48-3.48s1.56-3.48,3.48-3.48h41.74c1.92,0,3.48,1.56,3.48,3.48s-1.56,3.48-3.48,3.48Z" style="fill: #ffa06c;"/>
    <path d="m73.92,102.61h3.48v10.43h-3.48v-10.43Zm-24.35,0h3.48v10.43h-3.48v-10.43Z" style="fill: #ff8044;"/>
  </g>
  <text transform="translate(143.35 112.66)" style="fill: #ed1c24; font-family: MyriadPro-Regular, &apos;Myriad Pro&apos;; font-size: 33.87px;"><tspan x="0" y="0" style="letter-spacing: .02em;">K</tspan><tspan x="18.9" y="0">ailash </tspan><tspan x="106.85" y="0" style="letter-spacing: 0em;">M</tspan><tspan x="134.28" y="0" style="letter-spacing: 0em;">a</tspan><tspan x="150.46" y="0">th, </tspan><tspan x="194.66" y="0" style="letter-spacing: .02em;">K</tspan><tspan x="213.56" y="0">ashi </tspan><tspan x="277.19" y="0" style="letter-spacing: .05em;">(</tspan><tspan x="288.5" y="0" style="letter-spacing: -.03em;">V</tspan><tspan x="306.28" y="0">a</tspan><tspan x="322.6" y="0" style="letter-spacing: 0em;">r</tspan><tspan x="333.51" y="0">anasi)</tspan></text>
  <text transform="translate(142.99 46.79)" style="fill: #ed1c24; font-size: 40.45px;"><tspan x="0" y="0" style="font-family: ArialUnicodeMS, &apos;Arial Unicode MS&apos;;">कैलाश</tspan><tspan x="95.06" y="0" style="font-family: MyriadPro-Regular, &apos;Myriad Pro&apos;;"> </tspan><tspan x="103.63" y="0" style="font-family: ArialUnicodeMS, &apos;Arial Unicode MS&apos;;">मठ</tspan><tspan x="150.77" y="0" style="font-family: MyriadPro-Regular, &apos;Myriad Pro&apos;;">, </tspan><tspan x="167.72" y="0" style="font-family: ArialUnicodeMS, &apos;Arial Unicode MS&apos;;">काशी</tspan><tspan x="248.2" y="0" xml:space="preserve" style="font-family: MyriadPro-Regular, &apos;Myriad Pro&apos;;"> (</tspan><tspan x="268.26" y="0" style="font-family: ArialUnicodeMS, &apos;Arial Unicode MS&apos;;">वाराणसी</tspan><tspan x="404.77" y="0" style="font-family: MyriadPro-Regular, &apos;Myriad Pro&apos;;">)</tspan></text>
</svg>