<?xml version="1.0" encoding="UTF-8"?>
<svg id="Layer_1" data-name="Layer 1" xmlns="http://www.w3.org/2000/svg" viewBox="0 0 572.13 98.58">
  <text transform="translate(120.14 40.94) scale(1.16 1)" style="fill: #be1e2d; font-size: 36.03px;"><tspan x="0" y="0" style="font-family: ArialUnicodeMS, &apos;Arial Unicode MS&apos;;">कैलाश</tspan><tspan x="84.68" y="0" style="font-family: MyriadPro-Regular, &apos;Myriad Pro&apos;; letter-spacing: 0em;"> </tspan><tspan x="92.32" y="0" style="font-family: ArialUnicodeMS, &apos;Arial Unicode MS&apos;;">मठ</tspan><tspan x="134.31" y="0" style="font-family: MyriadPro-Regular, &apos;Myriad Pro&apos;; letter-spacing: 0em;">, </tspan><tspan x="149.41" y="0" style="font-family: ArialUnicodeMS, &apos;Arial Unicode MS&apos;;">काशी</tspan><tspan x="221.1" y="0" xml:space="preserve" style="font-family: MyriadPro-Regular, &apos;Myriad Pro&apos;;"> ( </tspan><tspan x="246.61" y="0" style="font-family: ArialUnicodeMS, &apos;Arial Unicode MS&apos;;">वाराणसी </tspan><tspan x="378.23" y="0" style="font-family: MyriadPro-Regular, &apos;Myriad Pro&apos;;">)</tspan></text>
  <text transform="translate(120.08 90.52) scale(1.14 1)" style="fill: #be1e2d; font-family: MyriadPro-Regular, &apos;Myriad Pro&apos;; font-size: 32.24px;"><tspan x="0" y="0" style="letter-spacing: .02em;">K</tspan><tspan x="17.99" y="0">ailash </tspan><tspan x="101.71" y="0" style="letter-spacing: 0em;">M</tspan><tspan x="127.82" y="0" style="letter-spacing: 0em;">a</tspan><tspan x="143.23" y="0" style="letter-spacing: 0em;">th, </tspan><tspan x="185.3" y="0" style="letter-spacing: .02em;">K</tspan><tspan x="203.29" y="0">ashi </tspan><tspan x="263.87" y="0" style="letter-spacing: .05em;">(</tspan><tspan x="274.63" y="0" style="letter-spacing: -.03em;">V</tspan><tspan x="291.56" y="0">a</tspan><tspan x="307.1" y="0" style="letter-spacing: 0em;">r</tspan><tspan x="317.48" y="0">anasi)</tspan></text>
  <g>
    <path d="m69.63,3.83l-19.5-2.44v14.62l19.5-2.44-7.8-4.87,7.8-4.87Z" style="fill: #f58049;"/>
    <path d="m0,96.09h100.27l-5.57-5.57H5.57l-5.57,5.57Z" style="fill: #c75427;"/>
    <path d="m48.74,4.18c0-5.57,2.79-5.57,2.79,0,0,13.93,2.79,25.07,2.79,25.07h-8.36s2.79-11.14,2.79-25.07Z" style="fill: #662314;"/>
    <path d="m77.99,76.59v-5.57l-11.14-5.4v-11.31l-5.57-5.57h-.34s2.04-11.05-3.84-15.18v-4.32l-2.79-2.79h-8.36l-2.79,2.79v4.32c-5.87,4.13-3.84,15.18-3.84,15.18h-.34l-5.57,5.57v11.31l-11.14,5.4v5.57l-11.14,5.57v11.14l77.99.1v-11.24l-11.14-5.57Z" style="fill: #c75427;"/>
    <path d="m55.28,48.74h-10.28s-1.71-13.93,1.71-13.93h6.86c3.43,0,1.71,13.93,1.71,13.93Z" style="fill: #662314;"/>
    <path d="m32.82,61.21v-1.45l-.81-.81h-.18c-.24-1.21-.64-3.66-.64-6.51,0-1.63-.81-1.63-.81,0,0,2.85-.4,5.3-.64,6.51h-.18l-.81.81v1.45c-1.3,1.32-.82,4.24-.82,4.24h5.7s.48-2.92-.81-4.24Zm38.73,0v-1.45l-.81-.81h-.18c-.24-1.21-.64-3.66-.64-6.51,0-1.63-.81-1.63-.81,0,0,2.85-.4,5.3-.64,6.51h-.18l-.81.81v1.45c-1.3,1.32-.81,4.24-.81,4.24h5.7s.48-2.92-.82-4.24Zm11.14,11.14v-1.45l-.81-.81h-.18c-.24-1.21-.64-3.66-.64-6.51,0-1.63-.81-1.63-.81,0,0,2.85-.4,5.3-.64,6.51h-.18l-.81.81v1.45c-1.3,1.32-.81,4.24-.81,4.24h5.7s.48-2.92-.82-4.24Zm11.14,13.93v-1.45l-.81-.81h-.18c-.24-1.21-.64-3.66-.64-6.51,0-1.63-.81-1.63-.81,0,0,2.85-.4,5.3-.64,6.51h-.18l-.81.81v1.45c-1.3,1.32-.81,4.24-.81,4.24h5.7s.48-2.92-.82-4.24Zm-72.16-13.93v-1.45l-.81-.81h-.18c-.24-1.21-.64-3.66-.64-6.51,0-1.63-.81-1.63-.81,0,0,2.85-.4,5.3-.64,6.51h-.18l-.81.81v1.45c-1.29,1.32-.81,4.24-.81,4.24h5.7s.48-2.92-.81-4.24Zm-11.14,13.93v-1.45l-.81-.81h-.18c-.24-1.21-.64-3.66-.64-6.51,0-1.63-.81-1.63-.81,0,0,2.85-.4,5.3-.64,6.51h-.18l-.81.81v1.45c-1.29,1.32-.81,4.24-.81,4.24h5.7s.48-2.92-.81-4.24Z" style="fill: #c75427;"/>
    <path d="m43.17,29.25l2.79-2.79h8.36l2.79,2.79h-13.93Zm-9.75,25.07l5.57-5.57h22.28l5.57,5.57h-33.42Zm-11.14,16.71l5.57-5.57h44.56l5.57,5.57H22.28Zm-11.14,11.14l5.57-5.57h66.85l5.57,5.57H11.14ZM0,96.09l5.57-5.57h89.13l5.57,5.57H0Z" style="fill: #f58049;"/>
    <path d="m58.49,65.45h-16.71s0-11.14,4.18-11.14h8.36c4.18,0,4.18,11.14,4.18,11.14Zm2.79,11.14h-22.28s0-5.57,5.57-5.57h11.14c5.57,0,5.57,5.57,5.57,5.57Z" style="fill: #662314;"/>
    <path d="m66.85,90.52h-33.42s0-8.36,8.36-8.36h16.71c8.36,0,8.36,8.36,8.36,8.36Z" style="fill: #2a2f33;"/>
    <path d="m58.49,71.02h-16.71c-1.54,0-2.79-1.25-2.79-2.79s1.25-2.79,2.79-2.79h16.71c1.54,0,2.79,1.25,2.79,2.79s-1.25,2.79-2.79,2.79Zm2.79,11.14h-22.28c-1.54,0-2.79-1.25-2.79-2.79s1.25-2.79,2.79-2.79h22.28c1.54,0,2.79,1.25,2.79,2.79s-1.25,2.79-2.79,2.79Zm5.57,13.93h-33.42c-1.54,0-2.79-1.25-2.79-2.79s1.25-2.79,2.79-2.79h33.42c1.54,0,2.79,1.25,2.79,2.79s-1.25,2.79-2.79,2.79Z" style="fill: #f89f6e;"/>
    <path d="m58.49,82.17h2.79v8.36h-2.79v-8.36Zm-19.5,0h2.79v8.36h-2.79v-8.36Z" style="fill: #f58049;"/>
  </g>
</svg>